<?xml version="1.0" encoding="UTF-8"?>
<svg xmlns="http://www.w3.org/2000/svg" viewBox="0 0 16 16">
	<g transform="rotate(90 8 8)">
		<path d="M 15 8 C 15 8.277344 14.777344 8.5 14.5 8.5 L 5.707031 8.5 L 9.355469 12.144531 C 9.550781 12.339844 9.550781 12.660156 9.355469 12.855469 C 9.160156 13.046875 8.84375 13.046875 8.648438 12.855469 L 4.148438 8.355469 C 3.953125 8.160156 3.953125 7.839844 4.148438 7.644531 L 8.648438 3.144531 C 8.84375 2.953125 9.160156 2.953125 9.355469 3.144531 C 9.550781 3.339844 9.550781 3.660156 9.355469 3.855469 L 5.707031 7.5 L 14.5 7.5 C 14.777344 7.5 15 7.722656 15 8 Z M 2.5 2.5 C 2.222656 2.5 2 2.722656 2 3 L 2 13 C 2 13.277344 2.222656 13.5 2.5 13.5 C 2.777344 13.5 3 13.277344 3 13 L 3 3 C 3 2.722656 2.777344 2.5 2.5 2.5 Z M 2.5 2.5 " fill="#d2d2d2"/>
	</g>
</svg>
