<svg xmlns="http://www.w3.org/2000/svg" viewBox="0 0 60 60" fill="#d2d2d2"><path d="M8.2 49.8a1 1 0 0 0-1.4 0l-2.5 2.5a4.5 4.5 0 0 0 0 6.4 4.5 4.5 0 0 0 6.4 0 4.5 4.5 0 0 0 0-6.4l-2.5-2.5zM55.2 10.4a6.2 6.2 0 0 0 .5-8.2 6 6 0 0 0-8.9-.4l-3.5 3.5a3 3 0 0 1-4.2 0l-.6-.6c-.8-.8-2.2-.8-3 0l-4 4a2.2 2.2 0 0 0 0 3l2 2L18.1 29l-1 1a13.6 13.6 0 0 0-3.4 5.7l-1 2.4-.2.2a11.9 11.9 0 0 1-1.7 2.2l-4.4 4.4 5.7 5.6 4.3-4.3c1.4-1.4 3-2.4 5-3A13.5 13.5 0 0 0 27 40L38 29l5.3-5.4 2 2a2.2 2.2 0 0 0 3.1 0l4-4c.8-.8.8-2.2 0-3l-.6-.7a3 3 0 0 1 0-4.1l3.4-3.4zM35.2 29H21L35 15.1l7 7.1-6.7 6.8z"/></svg>